<svg width="935" height="802" xmlns="http://www.w3.org/2000/svg" xmlns:xlink="http://www.w3.org/1999/xlink" xml:space="preserve" overflow="hidden"><defs><clipPath id="clip0"><rect x="2759" y="948" width="935" height="802"/></clipPath><clipPath id="clip1"><rect x="3298" y="980" width="203" height="201"/></clipPath><clipPath id="clip2"><rect x="3298" y="980" width="203" height="201"/></clipPath><clipPath id="clip3"><rect x="3298" y="980" width="203" height="201"/></clipPath><clipPath id="clip4"><rect x="2900" y="952" width="248" height="247"/></clipPath><clipPath id="clip5"><rect x="2900" y="952" width="248" height="247"/></clipPath><clipPath id="clip6"><rect x="2900" y="952" width="248" height="247"/></clipPath><clipPath id="clip7"><rect x="3252" y="1408" width="248" height="247"/></clipPath><clipPath id="clip8"><rect x="3252" y="1408" width="248" height="247"/></clipPath><clipPath id="clip9"><rect x="3252" y="1408" width="248" height="247"/></clipPath></defs><g clip-path="url(#clip0)" transform="translate(-2759 -948)"><g clip-path="url(#clip1)"><g clip-path="url(#clip2)"><g clip-path="url(#clip3)"><path d="M98.125 41.0417C93.3334 41.0417 89.375 45 89.375 49.7917 89.375 54.5834 93.3334 58.5417 98.125 58.5417 102.917 58.5417 106.875 54.5834 106.875 49.7917 106.875 45 102.917 41.0417 98.125 41.0417Z" fill="#4C6BA3" fill-rule="nonzero" fill-opacity="1" transform="matrix(1.005 0 0 1 3299 980)"/><path d="M80.625 92.0834C80.625 96.9159 76.7075 100.833 71.875 100.833 67.0425 100.833 63.125 96.9159 63.125 92.0834 63.125 87.2509 67.0425 83.3334 71.875 83.3334 76.7075 83.3334 80.625 87.2509 80.625 92.0834Z" fill="#4C6BA3" fill-rule="nonzero" fill-opacity="1" transform="matrix(1.005 0 0 1 3299 980)"/><path d="M122.917 52.7083 117.708 55.2084C117.292 56.875 116.458 58.3334 115.625 59.7917L117.5 65.2084 113.333 69.375 107.917 67.5C106.458 68.3334 105 68.9584 103.333 69.375L100.833 74.375 95 74.375 92.5 69.1667C90.8334 68.75 89.375 68.125 87.9167 67.2917L82.5 69.1667 78.3334 65 80.2084 59.5834C79.375 58.125 78.75 56.6667 78.3334 55L73.125 52.5 73.125 46.6667 78.3334 44.1667C78.75 42.5 79.375 41.0417 80.2084 39.5833L78.5417 34.1667 82.7084 30 88.125 31.875C89.5834 31.0417 91.0417 30.4167 92.7084 30L95.2084 24.7917 101.042 24.7917 103.542 29.7917C105.208 30.2083 106.667 30.8333 108.125 31.6667L113.542 29.7917 117.708 33.9583 115.833 39.375C116.667 40.8333 117.292 42.2917 117.708 43.9583L122.917 46.4583 122.917 52.7083ZM96.6667 95 91.4584 97.5C91.0417 99.1667 90.4167 100.625 89.5834 102.083L91.25 107.5 87.0834 111.667 81.6667 109.792C80.2084 110.625 78.75 111.25 77.0834 111.667L74.7917 116.667 68.9584 116.667 66.4584 111.458C64.7917 111.042 63.3334 110.417 61.875 109.583L56.4584 111.25 52.2917 107.083 54.1667 101.667C53.3334 100.208 52.7083 98.75 52.2917 97.0834L47.0833 94.5834 47.0833 88.75 52.2917 86.25C52.7083 84.5834 53.3334 83.125 54.1667 81.6667L52.2917 76.25 56.4584 72.0834 61.875 73.9584C63.3334 73.125 64.7917 72.5 66.4584 72.0834L68.9584 66.875 75 66.875 77.5 72.0834C79.1667 72.5 80.625 73.125 82.0834 73.9584L87.5 72.0834 91.6667 76.25 89.7917 81.6667C90.625 83.125 91.25 84.5834 91.6667 86.25L96.875 88.75 96.6667 95ZM168.75 102.708 154.375 77.7084 154.375 76.6667C155.208 53.75 143.542 32.2917 123.75 20.4167 103.958 8.75 79.5834 8.75 59.7917 20.4167 40 32.0833 28.3333 53.75 29.1667 76.6667 29.1667 96.4584 38.125 115 53.75 127.083L53.75 179.792 119.583 179.792 119.583 154.792 129.792 154.792C136.458 154.792 142.708 152.083 147.292 147.5 151.875 142.708 154.375 136.458 154.375 129.792L154.375 117.292 163.542 117.292C168.958 116.667 173.75 110.417 168.75 102.708Z" fill="#4C6BA3" fill-rule="nonzero" fill-opacity="1" transform="matrix(1.005 0 0 1 3299 980)"/></g></g></g><text fill="#00194B" fill-opacity="1" font-family="Calibri,Calibri_MSFontService,sans-serif" font-style="normal" font-variant="normal" font-weight="700" font-stretch="normal" font-size="183" text-anchor="start" direction="ltr" writing-mode="lr-tb" unicode-bidi="normal" text-decoration="none" transform="matrix(1 0 0 1 2873.44 1348)">Mat<tspan fill="#00194B" fill-opacity="1" font-family="Calibri,Calibri_MSFontService,sans-serif" font-style="normal" font-variant="normal" font-weight="700" font-stretch="normal" font-size="183" text-anchor="start" direction="ltr" writing-mode="lr-tb" unicode-bidi="normal" text-decoration="none" x="308.367" y="0">-</tspan><tspan fill="#4C6BA3" fill-opacity="1" font-family="Calibri,Calibri_MSFontService,sans-serif" font-style="normal" font-variant="normal" font-weight="700" font-stretch="normal" font-size="183" text-anchor="start" direction="ltr" writing-mode="lr-tb" unicode-bidi="normal" text-decoration="none" x="364.512" y="0">Tech</tspan></text><g clip-path="url(#clip4)"><g clip-path="url(#clip5)"><g clip-path="url(#clip6)"><path d="M3053.23 1004.51 2908.69 1004.51 2908.69 1149.05 3086.14 1149.05 3139.39 1149.05 3139.39 1095.79 3139.39 1004.51ZM3053.23 1009.7C3097.36 1011.1 3132.81 1046.54 3134.21 1090.67L3053.23 1090.67ZM3081.02 1095.8 3081.02 1111.02 3053.23 1111.02 3053.23 1095.79ZM3081.02 1116.15 3081.02 1143.79C3066.3 1142.53 3054.63 1130.86 3053.36 1116.14ZM3086.14 1111.02 3086.14 1095.79 3134.14 1095.79C3132.8 1121.73 3112.08 1142.46 3086.14 1143.8ZM3134.27 1063.55C3125.28 1038.41 3105.49 1018.62 3080.36 1009.63L3134.27 1009.63ZM2913.81 1009.63 3012.96 1009.63C2964.87 1022.99 2927.28 1060.53 2913.86 1108.6 2913.83 1108.69 2913.81 1108.69 2913.81 1108.6ZM3048.11 1143.93 2913.88 1143.93C2915.33 1070.4 2974.59 1011.15 3048.11 1009.7L3048.11 1143.93ZM3053.23 1131.85C3056.22 1136.79 3060.37 1140.94 3065.32 1143.93L3053.23 1143.93ZM3106.92 1143.91C3118.98 1138.31 3128.67 1128.62 3134.26 1116.56L3134.26 1143.91Z" fill="#00194B" fill-rule="nonzero" fill-opacity="1"/></g></g></g><g clip-path="url(#clip7)"><g clip-path="url(#clip8)"><g clip-path="url(#clip9)"><path d="M3373.6 1483.13C3387.69 1472.43 3390.44 1452.34 3379.74 1438.25 3369.05 1424.16 3348.95 1421.41 3334.86 1432.1 3320.77 1442.8 3318.02 1462.89 3328.72 1476.98 3330.48 1479.3 3332.55 1481.37 3334.86 1483.13L3334.86 1476.3C3324.55 1465.61 3324.86 1448.57 3335.56 1438.26 3346.25 1427.94 3363.29 1428.25 3373.6 1438.95 3383.65 1449.37 3383.65 1465.88 3373.6 1476.3Z" fill="#84A0AE" fill-rule="nonzero" fill-opacity="1"/><path d="M3318.45 1513.41C3310.8 1515.1 3305.96 1522.67 3307.65 1530.32 3307.65 1530.34 3307.65 1530.36 3307.66 1530.37L3321.66 1593.27C3322.38 1596.52 3324.23 1599.42 3326.88 1601.44L3351.67 1620.47 3351.67 1636.76 3356.79 1636.76 3356.79 1619.2C3356.79 1618.41 3356.42 1617.66 3355.79 1617.17L3330 1597.37C3328.3 1596.08 3327.12 1594.23 3326.66 1592.16L3312.66 1529.25C3311.64 1524.33 3314.81 1519.51 3319.74 1518.5 3324.55 1517.51 3329.29 1520.52 3330.43 1525.3L3340.02 1568.35C3340.34 1569.74 3341.73 1570.61 3343.11 1570.29 3344.3 1570.01 3345.14 1568.94 3345.11 1567.72L3345.11 1457.89C3345.2 1452.85 3349.35 1448.84 3354.38 1448.92 3359.3 1449 3363.27 1452.97 3363.35 1457.89L3363.35 1515.54C3363.33 1516.92 3364.38 1518.07 3365.75 1518.19 3367.16 1518.28 3368.38 1517.21 3368.48 1515.8 3368.48 1515.74 3368.48 1515.68 3368.48 1515.62 3368.49 1509.31 3373.61 1504.2 3379.93 1504.2 3385.26 1504.21 3389.88 1507.9 3391.06 1513.1 3391.38 1514.48 3392.75 1515.35 3394.13 1515.03 3394.59 1514.93 3395 1514.71 3395.34 1514.38 3399.89 1510.01 3407.12 1510.15 3411.5 1514.7 3413.55 1516.82 3414.69 1519.66 3414.69 1522.61 3414.69 1522.94 3414.68 1523.27 3414.64 1523.6 3414.46 1525 3415.45 1526.29 3416.85 1526.47 3417.6 1526.56 3418.34 1526.33 3418.9 1525.82 3423.57 1521.58 3430.79 1521.93 3435.04 1526.6 3436.95 1528.7 3438.01 1531.44 3438 1534.28L3438 1576.21C3438 1593.36 3432.17 1600.84 3427.03 1607.43 3423.07 1612.5 3419.34 1617.29 3419.34 1625.12L3419.34 1636.75 3424.46 1636.75 3424.46 1625.13C3424.46 1619.06 3427.38 1615.32 3431.07 1610.59 3436.45 1603.7 3443.13 1595.12 3443.13 1576.21L3443.13 1534.27C3443.13 1525.13 3435.72 1517.72 3426.57 1517.73 3424.13 1517.73 3421.71 1518.27 3419.49 1519.32 3417.67 1510.36 3408.92 1504.58 3399.95 1506.4 3398.14 1506.77 3396.4 1507.45 3394.81 1508.39 3390.79 1500.17 3380.88 1496.76 3372.66 1500.77 3371.12 1501.52 3369.71 1502.5 3368.48 1503.68L3368.48 1457.89C3368.37 1450.02 3361.91 1443.73 3354.04 1443.83 3346.32 1443.94 3340.09 1450.17 3339.99 1457.89L3339.99 1544.39C3339.99 1544.41 3339.98 1544.42 3339.96 1544.42 3339.95 1544.42 3339.94 1544.41 3339.94 1544.39L3335.43 1524.19C3333.73 1516.53 3326.14 1511.7 3318.48 1513.4 3318.47 1513.4 3318.46 1513.41 3318.45 1513.41Z" fill="#84A0AE" fill-rule="nonzero" fill-opacity="1"/></g></g></g><text fill="#84A0AE" fill-opacity="1" font-family="Arial,Arial_MSFontService,sans-serif" font-style="normal" font-variant="normal" font-weight="700" font-stretch="normal" font-size="183" text-anchor="start" direction="ltr" writing-mode="lr-tb" unicode-bidi="normal" text-decoration="none" transform="matrix(1 0 0 1 2934.44 1598)">Lab</text></g></svg>